<?xml version="1.0" encoding="utf-8"?>
<!-- Generator: Adobe Illustrator 23.0.3, SVG Export Plug-In . SVG Version: 6.00 Build 0)  -->
<svg version="1.1" id="Layer_1" xmlns="http://www.w3.org/2000/svg" xmlns:xlink="http://www.w3.org/1999/xlink" x="0px" y="0px"
	 viewBox="0 0 50 50" style="enable-background:new 0 0 50 50;" xml:space="preserve">
<path d="M34.1,26.5c3.7-2.6,6.1-6.9,6.1-11.7c0-7.9-6.5-14.4-14.4-14.4S11.4,6.8,11.4,14.7c0,4.6,2.2,8.7,5.6,11.3
	C7.1,29.4,0,38.7,0,49.7h4.4c0-11.3,9.2-20.6,20.6-20.6c11.3,0,20.6,9.2,20.6,20.6H50C50,39.1,43.4,30.1,34.1,26.5z M25.8,4.7
	c5.5,0,10,4.5,10,10s-4.5,10-10,10s-10-4.5-10-10S20.3,4.7,25.8,4.7z"/>
</svg>
