<?xml version="1.0" encoding="utf-8"?>
<!-- Generator: Adobe Illustrator 23.0.3, SVG Export Plug-In . SVG Version: 6.00 Build 0)  -->
<svg version="1.1" id="Layer_1" xmlns="http://www.w3.org/2000/svg" xmlns:xlink="http://www.w3.org/1999/xlink" x="0px" y="0px"
	 viewBox="0 0 620.9 97.3" style="enable-background:new 0 0 620.9 97.3;" xml:space="preserve">
<style type="text/css">
	.st0{display:none;fill:none;stroke:#000000;stroke-width:0.75;stroke-miterlimit:10;}
</style>
<image style="display:none;overflow:visible;opacity:0.28;enable-background:new    ;" width="1305" height="937" xlink:href="../Downloads/Image 2019-02-12 at 13.23 (1).jpg"  transform="matrix(0.5247 0 0 0.5247 -41.749 -217.1891)">
</image>
<line class="st0" x1="149.1" y1="-40.3" x2="449.5" y2="-40.3"/>
<line class="st0" x1="149.1" y1="96.7" x2="449.5" y2="96.7"/>
<g>
	<g>
		<path d="M195.2,78.6H189l-24.7-62.9h9.3l18.5,47.4l18.5-47.4h9.3L195.2,78.6z"/>
		<path d="M232.7,15.7c3.1,0,5.7,2.5,5.7,5.7c0,3.1-2.5,5.6-5.7,5.6c-3.1,0-5.6-2.4-5.6-5.6C227.1,18.2,229.5,15.7,232.7,15.7z
			 M228.5,36.3h8.5v42.2h-8.5V36.3z"/>
		<path d="M252.2,14.8h8.5v63.8h-8.5V14.8z"/>
		<path d="M276,14.8h8.5v63.8H276V14.8z"/>
		<path d="M330.6,74.7c-3.4,3.1-8,4.8-13,4.8c-3.8,0-7.7-1.1-10.6-2.8c-6.4-3.8-10.8-10.8-10.8-19.2s4.5-15.5,10.9-19.3
			c2.9-1.7,6.4-2.7,10.3-2.7c4.8,0,9.3,1.4,13.2,4.8v-3.9h8.3v42.2h-8.3V74.7z M330.4,49.6c-2.6-3.4-6.9-6-12-6
			c-8.2,0-13.6,6.6-13.6,13.9c0,7.5,5.8,13.9,14,13.9c4.3,0,8.7-2.2,11.6-6V49.6z"/>
		<path d="M402.6,78.6h-6.3l-24.7-62.9h9.3l18.5,47.4L418,15.7h9.3L402.6,78.6z"/>
		<path d="M440.1,15.7c3.1,0,5.7,2.5,5.7,5.7c0,3.1-2.5,5.6-5.7,5.6c-3.1,0-5.6-2.4-5.6-5.6C434.5,18.2,436.9,15.7,440.1,15.7z
			 M435.8,36.3h8.5v42.2h-8.5V36.3z"/>
		<path d="M497.4,69.6c-3.5,5.8-11,9.9-18.8,9.9c-13,0-22.5-9.5-22.5-22s9.3-22,22-22c7.4,0,14,3.7,18,9.2l-6.3,5.3
			c-2.3-3.2-6.3-6.4-11.7-6.4c-7.6,0-13.5,5.9-13.5,13.9c0,8.3,5.9,13.9,14,13.9c5.6,0,9.5-3,12.2-6.6L497.4,69.6z"/>
		<path d="M533.3,78.6c-1.6,0.5-4.2,0.9-6.6,0.9c-5.3,0-9.3-1.9-11.9-4.9c-2.5-2.8-3.4-6.6-3.4-11.2V44h-10.8v-7.6h10.8V24.7h8.5
			v11.7h13.5V44h-13.5v19.8c0,2.2,0.2,4.1,1.3,5.4c1.2,1.4,3.6,2.2,5.8,2.2c1.3,0,3.4-0.2,4.7-0.5L533.3,78.6z"/>
		<path d="M563.2,35.5c12.5,0,21.8,9.4,21.8,22s-9.3,22-21.8,22c-12.5,0-21.8-9.4-21.8-22S550.7,35.5,563.2,35.5z M563.2,71.4
			c7.8,0,13.3-6.2,13.3-13.9c0-7.7-5.5-13.9-13.3-13.9s-13.3,6.2-13.3,13.9C549.9,65.2,555.4,71.4,563.2,71.4z"/>
		<path d="M619.9,43.9c-1-0.3-2-0.4-3.3-0.4c-4.4,0-9.1,3.1-11.4,7.1v27.9h-8.5V36.3h8.3v4.9c2.1-2.9,6.5-5.7,12.7-5.7
			c0.9,0,2.3,0.1,3.3,0.3L619.9,43.9z"/>
	</g>
	<g>
		<path d="M89.6,22.5L89.6,22.5L89.6,22.5C80.9,9,65.8,0,48.6,0S16.4,9,7.7,22.4h0v0.1C2.8,30.1,0,39,0,48.6
			c0,26.8,21.8,48.6,48.6,48.6s48.6-21.8,48.6-48.6C97.3,39,94.4,30.1,89.6,22.5z M48.6,7.5c12.7,0,24.2,5.8,31.7,15H16.9
			C24.5,13.3,35.9,7.5,48.6,7.5z M7.5,48.6c0-6.7,1.7-13.1,4.5-18.7h49.7v57.7c-4.1,1.4-8.5,2.2-13.1,2.2
			C25.9,89.8,7.5,71.3,7.5,48.6z M69.2,84.2V29.9h16c2.9,5.6,4.5,12,4.5,18.7C89.8,63.8,81.5,77.1,69.2,84.2z"/>
		<path d="M31.8,33.7c-8.3,0-15,6.7-15,15s6.7,15,15,15s15-6.7,15-15S40,33.7,31.8,33.7z M31.8,56.1c-4.1,0-7.5-3.4-7.5-7.5
			s3.4-7.5,7.5-7.5s7.5,3.4,7.5,7.5S35.9,56.1,31.8,56.1z"/>
	</g>
</g>
</svg>
